<?xml version="1.0" encoding="UTF-8"?>
<svg width="24px" height="24px" viewBox="0 0 24 24" version="1.1" xmlns="http://www.w3.org/2000/svg" xmlns:xlink="http://www.w3.org/1999/xlink">
    <title>0.图标/线型/icons_outlined_search</title>
    <g id="0.图标/线型/icons_outlined_search" stroke="none" stroke-width="1" fill="none" fill-rule="evenodd" fill-opacity="0.3">
        <g id="common_icons_search" fill="#000000">
            <path d="M11,4 C14.866,4 18,7.134 18,11 C18,12.7422434 17.363508,14.3358231 16.3103676,15.5608954 L20.4242641,19.6757359 L19.5757359,20.5242641 L15.4526528,16.4015425 C14.2426406,17.4001328 12.691375,18 11,18 C7.134,18 4,14.866 4,11 C4,7.134 7.134,4 11,4 Z M10.9999971,5.20001221 C7.79673989,5.20001221 5.19999695,7.79675515 5.19999695,11.0000124 C5.19999695,14.2032696 7.79673989,16.8000126 10.9999971,16.8000126 C14.2032544,16.8000126 16.7999973,14.2032696 16.7999973,11.0000124 C16.7999973,7.79675515 14.2032544,5.20001221 10.9999971,5.20001221 Z" id="Fill-1"></path>
        </g>
    </g>
</svg>