<?xml version="1.0" encoding="UTF-8"?>
<svg width="24px" height="24px" viewBox="0 0 24 24" version="1.1" xmlns="http://www.w3.org/2000/svg" xmlns:xlink="http://www.w3.org/1999/xlink">
    <title>0.图标/线型/icons_outlined_call</title>
    <g id="0.图标/线型/icons_outlined_call" stroke="none" stroke-width="1" fill="none" fill-rule="evenodd">
        <g id="icon30" fill="#576B95">
            <path d="M5.75294642,2.39428219 C6.48961855,2.41883282 7.1277195,2.84592858 7.41947646,3.53597503 L8.7547737,7.08108369 C8.89166404,7.45696687 8.8413234,7.74180215 8.64186722,8.10663612 C8.28356513,8.7327233 7.545223,10.0937698 7.16103665,10.8463809 C7.10384064,10.9524425 7.07245763,11.073608 7.07245763,11.1872646 C7.07245763,11.2978281 7.10925143,11.422331 7.17917896,11.5360422 C7.87203584,12.7105215 8.62434278,13.7145704 9.45806977,14.5470805 C10.2812769,15.3829833 11.2800911,16.132816 12.4770616,16.8369738 C12.5860913,16.9039682 12.6959888,16.9368879 12.8161017,16.9368879 C12.9392746,16.9368879 13.0457768,16.9089031 13.1680652,16.843244 C13.8601757,16.4844185 15.1627466,15.7799187 15.9147679,15.3627804 C16.2662784,15.1713353 16.5282203,15.123781 16.9096196,15.2507232 L20.5041802,16.6007033 C21.1602313,16.8778467 21.5870818,17.5034123 21.6348629,18.2205007 C21.6403212,18.285902 21.6402897,18.3510527 21.6356697,18.4163248 C21.6261629,18.5506409 21.5985448,18.6782611 21.5583416,18.8072788 C21.5379579,18.8726929 21.514356,18.9372452 21.5001716,18.9743897 C20.8225899,20.8161481 19.0811696,22.0626412 17.0961864,22.0626412 C16.6400546,22.0626412 16.1640558,21.9834272 15.8900079,21.9042032 C12.5243405,21.1360629 9.46150261,19.4249551 7.02234643,16.9894614 C4.58308083,14.5538583 2.86924544,11.4953435 2.0892596,8.07724817 C2.09002372,8.08258895 2.06742893,7.97730006 2.0465979,7.87407968 L2.02405511,7.75842078 L2.02405511,7.75842078 C1.97156799,7.47372351 1.94110169,7.20268488 1.94110169,6.92926083 C1.94110169,4.94629067 3.18973447,3.20711571 5.05393977,2.52367514 C5.10515703,2.50597155 5.16578015,2.48648166 5.23850534,2.46672519 C5.34775777,2.43704576 5.45632133,2.41483165 5.56650491,2.40298354 C5.62123411,2.39709848 5.67550044,2.39392655 5.75294642,2.39428219 Z M5.72966102,3.59392655 C5.65481502,3.60040526 5.60584015,3.61042643 5.55309484,3.62475518 C5.5115341,3.63604553 5.47926861,3.64641865 5.44718058,3.65727174 C4.06980664,4.16248612 3.14110169,5.45604529 3.14110169,6.92926083 C3.14110169,7.11981551 3.16384292,7.3221293 3.20416725,7.5408539 C3.21915155,7.62213078 3.27129448,7.86627284 3.26959623,7.86653574 C3.98808643,11.0052106 5.58935566,13.8628395 7.87023681,16.140296 C10.1511961,18.4178304 13.0133196,20.0168056 16.1829326,20.740935 C16.3939795,20.8011436 16.7635204,20.8626412 17.0961864,20.8626412 C18.5723094,20.8626412 19.868078,19.9351416 20.3689501,18.5743699 C20.3923007,18.5106498 20.4028769,18.4817235 20.4126757,18.4502777 C20.4275573,18.4025208 20.4366033,18.3607199 20.4386643,18.3316015 C20.4193487,18.0267058 20.2667668,17.8030911 20.0559958,17.7136085 L16.5308697,16.3897775 C15.7358105,16.8342927 14.4239492,17.5438173 13.7270281,17.9050734 C13.442929,18.0578201 13.1420194,18.1368879 12.8161017,18.1368879 C12.467393,18.1368879 12.1416509,18.0393121 11.8571083,17.8643623 C10.5868334,17.1172417 9.50559496,16.3055312 8.60603437,15.3920722 C7.69943682,14.4868359 6.88712175,13.4026985 6.15061794,12.1540481 C5.97336362,11.8664423 5.87245763,11.5249966 5.87245763,11.1872646 C5.87245763,10.8721673 5.95442651,10.5556968 6.09953359,10.2868906 C6.48527891,9.53082371 7.23275614,8.15293776 7.59552564,7.51924198 C7.60461743,7.50259871 7.17411833,6.32211461 6.30402833,3.97778968 C6.20733743,3.74959071 5.98802941,3.60280277 5.72966102,3.59392655 Z" id="Combined-Shape"></path>
        </g>
    </g>
</svg>