<?xml version="1.0" encoding="UTF-8"?>
<svg width="20px" height="20px" viewBox="0 0 20 20" version="1.1" xmlns="http://www.w3.org/2000/svg" xmlns:xlink="http://www.w3.org/1999/xlink">
    <!-- Generator: Sketch 64 (93537) - https://sketch.com -->
    <title>locate</title>
    <desc>Created with Sketch.</desc>
    <g id="locate" stroke="none" stroke-width="1" fill="none" fill-rule="evenodd" >
        <g id="3.Icons/Outlined/location" fill="#576b95">
            <g id="icon22" transform="translate(3.333333, 1.666667)">
                <path d="M6.72099179,16.035972 C6.71917489,16.0343341 6.71737974,16.0327706 6.71560681,16.0312794 L6.72099179,16.035972 Z M6.87236403,15.8071721 C7.06911103,15.6298145 7.28943619,15.4231761 7.5273703,15.1899102 C8.20886138,14.5217899 8.89074338,13.7779368 9.52513845,12.9807331 C11.2244526,10.8453137 12.2594937,8.7392517 12.3295722,6.86640139 C12.3320777,6.79944254 12.3333333,6.73286387 12.3333333,6.66666667 C12.3333333,3.53705308 9.79628025,1 6.66666667,1 C3.53705308,1 1,3.53705308 1,6.66666667 C1,6.73286387 1.00125568,6.79944254 1.00376115,6.86640139 C1.07383965,8.7392517 2.10888075,10.8453137 3.80819488,12.9807331 C4.44258996,13.7779368 5.12447195,14.5217899 5.80596303,15.1899102 C6.04389714,15.4231761 6.2642223,15.6298145 6.4609693,15.8071721 C6.55291052,15.8900525 6.62247648,15.9511594 6.66666667,15.989179 C6.71085686,15.9511594 6.78042282,15.8900525 6.87236403,15.8071721 Z M6.05143229,16.7787304 C6.05143229,16.7787304 0,11.6818983 0,6.66666667 C0,2.98476833 2.98476833,0 6.66666667,0 C10.348565,0 13.3333333,2.98476833 13.3333333,6.66666667 C13.3333333,11.6818983 7.28190104,16.7787304 7.28190104,16.7787304 C6.9446374,17.08835 6.39121685,17.0850291 6.05143229,16.7787304 Z M6.66666667,9 C7.95533108,9 9,7.95533108 9,6.66666667 C9,5.37800225 7.95533108,4.33333333 6.66666667,4.33333333 C5.37800225,4.33333333 4.33333333,5.37800225 4.33333333,6.66666667 C4.33333333,7.95533108 5.37800225,9 6.66666667,9 Z M6.66666667,10 C4.8257175,10 3.33333333,8.50761583 3.33333333,6.66666667 C3.33333333,4.8257175 4.8257175,3.33333333 6.66666667,3.33333333 C8.50761583,3.33333333 10,4.8257175 10,6.66666667 C10,8.50761583 8.50761583,10 6.66666667,10 Z" id="图标颜色"></path>
            </g>
        </g>
    </g>
</svg>